<svg width="16" height="16" viewBox="0 0 16 16" fill="none" xmlns="http://www.w3.org/2000/svg">
<path d="M1 8C1 5.64298 1 4.46447 1.73223 3.73223C2.46447 3 3.64298 3 6 3H10C12.357 3 13.5355 3 14.2678 3.73223C15 4.46447 15 5.64298 15 8C15 10.357 15 11.5355 14.2678 12.2678C13.5355 13 12.357 13 10 13H6C3.64298 13 2.46447 13 1.73223 12.2678C1 11.5355 1 10.357 1 8Z" fill="#DE00EE"/>
<path d="M14.3479 5.5598C14.6146 5.63127 14.7729 5.90544 14.7014 6.17217L12.8897 12.9337C12.8182 13.2004 12.5441 13.3587 12.2773 13.2872L1.65213 10.4402C1.3854 10.3687 1.22711 10.0946 1.29858 9.82783L3.11031 3.06634C3.18178 2.79961 3.45595 2.64132 3.72269 2.71279L14.3479 5.5598ZM5.36104 6.25762C4.82758 6.11467 4.27924 6.43126 4.1363 6.96472C3.99336 7.49819 4.30994 8.04653 4.84341 8.18947C5.37687 8.33241 5.92521 8.01583 6.06815 7.48236C6.21109 6.9489 5.89451 6.40056 5.36104 6.25762ZM11.1566 7.81053C10.6231 7.66759 10.0748 7.98417 9.93185 8.51764C9.78891 9.0511 10.1055 9.59944 10.639 9.74238C11.1724 9.88532 11.7208 9.56874 11.8637 9.03528C12.0066 8.50181 11.6901 7.95347 11.1566 7.81053ZM4.07624 3.32516L3.68801 4.77405L13.3473 7.36224L13.7355 5.91335L4.07624 3.32516Z" fill="white"/>
<path d="M3.28513 8.80721L1.65213 10.4402L12.4267 13.3272L11.829 11.0965L3.28513 8.80721Z" fill="#F898FF"/>
</svg>
